<?xml version="1.0" encoding="UTF-8"?>
<svg width="454.14" height="96.62" fill="none" version="1.1" viewBox="0 0 454.14 96.62" xmlns="http://www.w3.org/2000/svg">
	<g transform="translate(-.25001)" clip-path="url(#clip0_3614_5408)">
		<mask id="mask0_3614_5408" x="0" y="0" width="455" height="100" maskUnits="userSpaceOnUse">
			<path d="m454.5 0h-454.25v100h454.25z" fill="#fff"/>
		</mask>
		<g mask="url(#mask0_3614_5408)">
			<path d="m72.346 92.111c5.8115-4.357 8.756-10.245 6.5767-13.152-2.1792-2.9067-8.6572-1.731-14.469 2.6262-5.8115 4.357-8.756 10.246-6.5768 13.152 2.1793 2.9067 8.6573 1.731 14.469-2.6263z" fill="#f38264"/>
			<path d="m98.647 60.729c-4.7833 11.306-13.807 12.826-25.111 13.477-11.306 0.653-15 6.848-19.021 13.262-3.019 4.8118-6.12 6.7243-7.4787 7.3815-0.4228 0.2038-0.85 0.4073-1.2618 0.6285-4.586 2.4548-13.895 0.4008-16.033-1.0247-9e-3 -0.0065-0.02-0.011-0.029-0.0175-0.2412-0.1505-0.5422-0.3433-0.6617-0.403-5.9804-3.0455-8.041-8.4528-8.6917-10.916v-9e-3l-0.0088-0.022-0.1749-0.633s-0.4559-0.9873-0.7902-1.1953c0 0-35.165-20.761-9.0746-61.199 0 0 3.2779-4.6391 4.6568 0.2169 1.3767 4.8516-9.2561 37.009 5.6839 60.918 0 0.0022 0.0022 0.0022 0.0022 0.0067 0.0177 0.0375 0.031 0.0753 0.0487 0.1128 1.9499 4.4112 5.0883 6.981 5.0883 6.981l0.2878 0.0065 0.1727-0.1638 0.208 0.2988 2.0983 3.2757 1.0667-0.4892-0.0795 0.4937 0.1438 0.5555c0.0177-0.0487 0.031-0.0862 0.0465-0.113-0.0088-0.0507-0.0155-0.095-0.0155-0.095l0.228-0.436 0.166-0.0865c0.1727-0.467 0.374-1.0535 0.374-1.0535 14.677-34.893 52.62-48.122 59.793-47.903 7.1735 0.2168 13.152 6.848 8.3685 18.154z" fill="url(#paint0_linear_3614_5408)"/>
			<path d="m9.6906 20.765s0.2169-0.0797 0.14607 0.5246c-0.7481 6.6246-4.6568 46.812 9.1809 59.753 0 0-34.703-19.599-9.7298-59.64 0.2169-0.3453-0.10402 0.1615 0.40283-0.6375z" fill="url(#paint1_linear_3614_5408)"/>
			<path d="m34.378 89.821s20.436-20.798 45.221-26.741l2.5342-4.347s-29.349 6.8855-48.191 28.99l0.436 2.1002z" fill="url(#paint2_linear_3614_5408)"/>
			<path d="m99.736 40.444s-8.7495-7.4523-24.838 2.1182c-13.532 8.0478-28.45 18.145-37.204 29.904-0.0023 0.0067-0.0068 9e-3 -9e-3 0.0155-6.7793 10.394-7.574 19.25-7.574 19.25l-0.022-0.1705-0.4183 0.9007-0.1905 0.2215s-3.88-34.196 44.331-71.752c0 0 11.25-9.4576 16.088-2.065 4.8385 7.3924 7.065 9.0237 9.8363 21.58z" fill="url(#paint3_linear_3614_5408)"/>
			<path d="m92.664 22.985s-15.383-1.0668-29.732 14.586l3.4062 3.984 31.474-7.7823-0.901-3.1427s-2.6934-6.2041-4.2427-7.6494z" fill="url(#paint4_linear_3614_5408)"/>
			<path d="m50.011 59.735s0.0178-0.0397 0.0555-0.1217c0.9628-2.054 14.564-29.827 46.766-28.984 0.0465 0 0.084 0.031 0.0973 0.0752l1.731 4.9445 1.069 4.2763c0.0265 0.093-0.1615 0.4027-0.239 0.3497-1.5095-1.0515-10.11-6.1665-24.599 2.293-16.016 9.3513-24.878 17.164-24.878 17.164h-0.0023z" fill="#ff8f6b"/>
			<path d="m80.409 11.987c-1.7552 1.3169-6.525 1.9278-16.014 11.213-9.6147 9.4133-22.748 24.039-30.075 38.808-4.7498 9.586-6.578 19.126-5.2878 27.744 0 0 0.0023 0.0264 0.0113 0.0752 0.0065 0.0287 0.011 0.0665 0.0177 0.1085 0.0463 0.25 0.1415 0.8387 0.334 1.339 0.0733 0.1882 0.113 0.2877 0.166 0.509l-0.0485 0.3853-0.104-0.0843c-0.0952 0.3278-0.6087 0.4318-0.7725 0.051-0.0022-0.0068-0.0022-0.011-0.0067-0.0178 0 0-16.381-35.475 24.55-90.817 0.0775-0.10624 0.2038-0.17043 0.3365-0.17043 2.0915 0.01992 19.132 0.48915 26.967 10.265 0.146 0.1815 0.1085 0.4471-0.0775 0.5888z" fill="url(#paint5_linear_3614_5408)"/>
			<path d="m41.963 49.277c7.0295-10.106 15.617-19.402 22.434-26.078 9.4863-9.2893 14.256-9.8958 16.014-11.215 0.1838-0.1372 0.2213-0.4073 0.0775-0.5888-3.5877-4.4753-9.1012-6.9985-14.227-8.4217 0 0-22.842 18.749-24.909 43.815 0 0-0.0553 2.2088 0 3.3885z" fill="url(#paint6_linear_3614_5408)"/>
			<path d="m25.934 88.694s-7.8286-13.946-9.566-26.184c-1.7397-12.235-0.3254-27.204 4.1323-50.584 0 0 1.0137-6.0446 23.262-11.872 0 0 2.1005-0.59539 0.943 2.1425-1.1575 2.7401-31.332 54.158-19.289 84.164l0.87 1.8147 0.0485 0.1153-0.3982 0.4005h-0.0023z" fill="url(#paint7_linear_3614_5408)"/>
			<path d="m26.067 46.3c6.0645-22.233 17.868-42.432 18.585-44.114 1.1577-2.7224-0.9428-2.1314-0.9428-2.1314-0.4272 0.11288-0.8432 0.22133-1.2572 0.33421 0 0-13.092 15.538-15.989 36.263 0 0-0.6885 7.2995-0.87 10.454l0.4715-0.8035z" fill="url(#paint8_linear_3614_5408)"/>
			<g fill="#000">
				<path d="m160.85 50.683c0 7.6105-1.783 13.226-5.348 16.846-3.567 3.6203-9.129 5.4295-16.687 5.4295-2.767 0-5.429-0.505-7.985-1.517-2.502-1.0117-4.47-2.688-5.907-5.0307v18.762h-9.422v-56.128h9.422v5.9078c1.543-2.5023 3.538-4.2315 5.987-5.1905 2.449-0.9588 5.058-1.437 7.826-1.437 7.61 0 13.199 1.8357 16.766 5.5092 3.565 3.6203 5.348 9.2335 5.348 16.846zm-22.117-14.53c-2.555 0-4.738 0.319-6.547 0.9587-1.756 0.5848-3.167 1.4903-4.232 2.7148-1.065 1.1715-1.838 2.6617-2.316 4.4707s-0.717 3.9393-0.717 6.386c0 2.4468 0.239 4.6833 0.717 6.5478 0.478 1.8622 1.251 3.4055 2.316 4.63 1.116 1.1715 2.555 2.0482 4.311 2.635 1.756 0.5847 3.94 0.8792 6.548 0.8792 2.449 0 4.471-0.2922 6.067-0.8792 1.65-0.5845 2.954-1.4635 3.913-2.635 1.012-1.2245 1.703-2.7678 2.075-4.63 0.425-1.8623 0.638-4.0455 0.638-6.5478 0-2.502-0.213-4.816-0.638-6.6272-0.372-1.8623-1.065-3.379-2.075-4.5505-0.959-1.1713-2.263-2.0215-3.913-2.5553-1.596-0.5315-3.645-0.7995-6.147-0.7995z"/>
				<path d="m212.66 72.319h-9.342v-5.3497c-1.544 2.1302-3.459 3.6734-5.749 4.63-2.289 0.9057-4.791 1.3574-7.504 1.3574-4.364 0-8.011-0.5579-10.939-1.6762-2.927-1.1715-5.27-2.7413-7.025-4.7098-1.756-2.0217-3.008-4.391-3.754-7.1057-0.693-2.768-1.038-5.7218-1.038-8.8618 0-3.1397 0.345-5.9077 1.038-8.6224 0.693-2.7145 1.889-5.084 3.592-7.1055 1.758-2.0218 4.072-3.6205 6.946-4.7895 2.927-1.2245 6.628-1.8358 11.098-1.8358 4.471 0 8.171 0.6113 11.098 1.8358 2.928 1.1712 5.244 2.7677 6.947 4.7895 1.702 2.0215 2.9 4.391 3.591 7.1055 0.693 2.7147 1.039 5.5889 1.039 8.6224v21.716zm-22.672-36.328c-2.556 0-4.712 0.2923-6.468 0.8791-1.703 0.5315-3.087 1.3839-4.152 2.5552-1.012 1.1715-1.756 2.6883-2.234 4.5505-0.426 1.809-0.64 4.019-0.64 6.6272 0 2.6085 0.212 4.8428 0.64 6.7073 0.478 1.809 1.224 3.2992 2.234 4.4707 1.065 1.1713 2.475 2.0481 4.231 2.6351 1.759 0.5312 3.913 0.7992 6.468 0.7992 2.556 0 4.684-0.2657 6.386-0.7992 1.756-0.5848 3.14-1.4638 4.152-2.6351 1.065-1.1715 1.809-2.6617 2.234-4.4707 0.426-1.8622 0.64-4.0988 0.64-6.7073 0-2.6082-0.239-4.8159-0.719-6.6272-0.425-1.8622-1.172-3.379-2.235-4.5505-1.011-1.1713-2.395-2.0215-4.151-2.5552-1.703-0.5845-3.833-0.8791-6.386-0.8791z"/>
				<path d="m260.82 28.806c-1.437 3.0337-2.955 6.2532-4.55 9.661-1.545 3.4055-3.14 6.9197-4.793 10.538-1.649 3.6205-3.352 7.2918-5.11 11.018-1.703 3.6735-3.406 7.265-5.111 10.779-0.693 1.5965-1.463 3.2195-2.316 4.8692-0.797 1.6495-1.73 3.1663-2.795 4.5503s-2.289 2.6085-3.673 3.6735c-1.384 1.0652-3.007 1.8092-4.872 2.2365-1.809 0.5315-3.671 0.826-5.589 0.879-1.917 0.0532-3.939 0.133-6.067 0.2392v-7.5042c2.556-0.0533 4.577-0.0798 6.067-0.0798 1.491 0 2.795-0.3187 3.913-0.9587 0.959-0.5845 1.945-1.7028 2.954-3.3525 1.065-1.6498 2.21-3.5938 3.435-5.828l-18.045-40.719h9.821l13.254 30.019 13.652-30.019h9.82z"/>
				<path d="m307.72 36.071c0.957-1.384 2.047-2.5287 3.272-3.4322 1.225-0.9058 2.528-1.623 3.913-2.1568 1.437-0.5315 2.927-0.9057 4.47-1.1182 1.545-0.2658 3.115-0.425 4.71-0.4783 3.14 0 6.12 0.3188 8.945 0.9588 2.82 0.5845 5.295 1.6232 7.423 3.1132 2.182 1.4373 3.887 3.379 5.112 5.8283 1.277 2.449 1.915 5.4825 1.915 9.1007v24.43h-9.34v-21.158c0-2.5555-0.16-4.763-0.48-6.6275-0.317-1.9155-0.958-3.4588-1.918-4.63-0.957-1.2245-2.312-2.1303-4.069-2.7148-1.705-0.5847-3.968-0.8792-6.788-0.8792-1.437 0-2.822 0.1062-4.152 0.319-1.33 0.2125-2.528 0.6377-3.59 1.2775-1.598 0.7995-2.876 2.0217-3.836 3.6735-0.957 1.5965-1.437 3.594-1.437 5.9875v24.749h-9.338v-17.644c0.053-0.9587 0.078-2.0747 0.078-3.3525 0-2.6085-0.157-4.8425-0.477-6.707-0.318-1.9155-0.958-3.4852-1.918-4.7097-0.958-1.2245-2.315-2.1303-4.072-2.7148-1.755-0.5847-4.046-0.8792-6.866-0.8792-4.205 0-7.452 0.9587-9.742 2.8742-2.233 1.9153-3.353 5.0575-3.353 9.4218v23.713h-9.419v-43.511h9.419v5.9875c1.49-2.3428 3.433-3.9128 5.831-4.7098 2.395-0.7995 4.814-1.198 7.264-1.198 1.703 0 3.406 0.1063 5.111 0.3188 1.755 0.2127 3.432 0.6112 5.03 1.198 1.65 0.5315 3.167 1.2777 4.549 2.2365 1.438 0.9057 2.691 2.0482 3.755 3.4322z"/>
				<path d="m400.8 72.319h-9.34v-5.3497c-1.545 2.1302-3.46 3.6734-5.75 4.63-2.285 0.9057-4.787 1.3574-7.502 1.3574-4.365 0-8.012-0.5579-10.94-1.6762-2.927-1.1715-5.268-2.7413-7.025-4.7098-1.758-2.0217-3.008-4.391-3.753-7.1057-0.695-2.768-1.039-5.7218-1.039-8.8618 0-3.1397 0.344-5.9077 1.039-8.6224 0.69-2.7145 1.888-5.084 3.591-7.1055 1.757-2.0218 4.072-3.6205 6.947-4.7895 2.927-1.2245 6.627-1.8358 11.097-1.8358s8.171 0.6113 11.098 1.8358c2.928 1.1712 5.243 2.7677 6.948 4.7895 1.702 2.0215 2.9 4.391 3.592 7.1055 0.693 2.7147 1.04 5.5889 1.04 8.6224v21.716zm-22.675-36.328c-2.555 0-4.709 0.2923-6.464 0.8791-1.703 0.5315-3.088 1.3839-4.153 2.5552-1.012 1.1715-1.755 2.6883-2.235 4.5505-0.425 1.809-0.64 4.019-0.64 6.6272 0 2.6085 0.212 4.8428 0.64 6.7073 0.48 1.809 1.223 3.2992 2.235 4.4707 1.065 1.1713 2.475 2.0481 4.232 2.6351 1.755 0.5312 3.913 0.7992 6.466 0.7992 2.552 0 4.684-0.2657 6.387-0.7992 1.757-0.5848 3.14-1.4638 4.152-2.6351 1.065-1.1715 1.811-2.6617 2.236-4.4707 0.425-1.8622 0.637-4.0988 0.637-6.7073 0-2.6082-0.24-4.8159-0.718-6.6272-0.425-1.8622-1.172-3.379-2.237-4.5505-1.012-1.1713-2.392-2.0215-4.152-2.5552-1.705-0.5845-3.833-0.8791-6.388-0.8791z"/>
				<path d="m445.05 72.319v-9.4217c0.052-1.6498 0.08-3.2463 0.08-4.7898v-4.5502c0-2.6085-0.135-4.9778-0.4-7.1058-0.213-2.13-0.798-3.9392-1.755-5.4295-0.905-1.4902-2.235-2.635-3.993-3.432-1.757-0.8525-4.152-1.2777-7.185-1.2777-2.555 0-4.685 0.3455-6.39 1.0385-1.647 0.6377-2.98 1.5965-3.992 2.8742-1.01 1.2245-1.728 2.7678-2.153 4.63-0.372 1.8623-0.56 3.9925-0.56 6.3883v21.078h-9.42v-43.516h9.42v5.9875c1.755-2.449 3.753-4.0455 5.988-4.7895 2.287-0.7463 4.657-1.1183 7.107-1.1183 3.14 0 6.068 0.3455 8.78 1.0385 2.77 0.693 5.163 1.809 7.188 3.3525 2.075 1.4903 3.7 3.432 4.867 5.828 1.173 2.3958 1.76 5.3233 1.76 8.782v24.43h-9.342z"/>
			</g>
		</g>
	</g>
	<defs>
		<linearGradient id="paint0_linear_3614_5408" x1="23.451" x2="69.07" y1="11.225" y2="83.929" gradientUnits="userSpaceOnUse">
			<stop stop-color="#FFE2C6" offset="0"/>
			<stop stop-color="#FCCC99" offset=".51"/>
			<stop stop-color="#F38669" offset=".75"/>
		</linearGradient>
		<linearGradient id="paint1_linear_3614_5408" x1="3.5043" x2="12.884" y1="28.383" y2="78.354" gradientUnits="userSpaceOnUse">
			<stop stop-color="#FFECD0" offset="0"/>
			<stop stop-color="#FCCB95" offset="1"/>
		</linearGradient>
		<linearGradient id="paint2_linear_3614_5408" x1="33.942" x2="82.135" y1="74.279" y2="74.279" gradientUnits="userSpaceOnUse">
			<stop stop-color="#F38568" offset="0"/>
			<stop stop-color="#F69F83" offset=".48"/>
			<stop stop-color="#F38264" offset="1"/>
		</linearGradient>
		<linearGradient id="paint3_linear_3614_5408" x1="42.654" x2="93.647" y1="72.004" y2="23.574" gradientUnits="userSpaceOnUse">
			<stop stop-color="#F38669" offset=".24"/>
			<stop stop-color="#FFA788" offset=".61"/>
			<stop stop-color="#FFCCB5" offset=".97"/>
		</linearGradient>
		<linearGradient id="paint4_linear_3614_5408" x1="66.746" x2="98.193" y1="40.216" y2="25.134" gradientUnits="userSpaceOnUse">
			<stop stop-color="#FFA686" offset=".04"/>
			<stop stop-color="#FFB295" offset=".97"/>
		</linearGradient>
		<linearGradient id="paint5_linear_3614_5408" x1="52.986" x2="52.986" y1="1.137" y2="92.384" gradientUnits="userSpaceOnUse">
			<stop stop-color="#FFEBD0" offset="0"/>
			<stop stop-color="#FFD6AB" offset=".78"/>
			<stop stop-color="#F38668" offset=".99"/>
		</linearGradient>
		<linearGradient id="paint6_linear_3614_5408" x1="50.626" x2="72.682" y1="34.222" y2="7.3918" gradientUnits="userSpaceOnUse">
			<stop stop-color="#FFE2C7" offset=".04"/>
			<stop stop-color="#FFD6C2" offset=".3"/>
			<stop stop-color="#FF8F6B" offset=".77"/>
		</linearGradient>
		<linearGradient id="paint7_linear_3614_5408" x1="31.213" x2="23.716" y1="15.46" y2="78.413" gradientUnits="userSpaceOnUse">
			<stop stop-color="#FFEDD1" offset="0"/>
			<stop stop-color="#FFCB96" offset=".87"/>
			<stop stop-color="#F38669" offset="1"/>
		</linearGradient>
		<linearGradient id="paint8_linear_3614_5408" x1="35.297" x2="35.297" y1="26.966" y2="8.9345" gradientUnits="userSpaceOnUse">
			<stop stop-color="#FFD2A6" offset="0"/>
			<stop stop-color="#FFE9D7" offset="1"/>
		</linearGradient>
		<clipPath id="clip0_3614_5408">
			<rect transform="translate(.25)" width="454.25" height="100" fill="#fff"/>
		</clipPath>
	</defs>
</svg>
